<?xml version="1.0" standalone="no"?>
<!DOCTYPE svg PUBLIC "-//W3C//DTD SVG 20010904//EN"
 "http://www.w3.org/TR/2001/REC-SVG-20010904/DTD/svg10.dtd">
<svg version="1.0" xmlns="http://www.w3.org/2000/svg"
 width="50.000000pt" height="50.000000pt" viewBox="0 0 50.000000 50.000000"
 preserveAspectRatio="xMidYMid meet">

<g transform="translate(0.000000,50.000000) scale(0.100000,-0.100000)"
fill="#000000" stroke="none">
<path d="M50 408 c-25 -6 -47 -12 -49 -13 -5 -5 122 -245 129 -245 4 0 29 7
55 15 27 8 52 12 57 9 4 -3 17 -22 28 -42 36 -69 29 -68 126 -31 49 18 91 34
93 36 2 1 -8 21 -23 43 -33 50 -33 57 4 65 17 4 30 9 30 11 0 3 -14 26 -31 50
-21 31 -36 43 -47 40 -9 -3 -29 -8 -44 -12 -33 -7 -34 -13 -8 -47 11 -14 20
-29 20 -35 0 -9 -103 -42 -131 -42 -8 0 -41 48 -74 105 -37 66 -65 105 -75
104 -8 -1 -35 -6 -60 -11z m117 -101 c29 -50 52 -96 51 -102 0 -8 -79 -39 -84
-32 -30 49 -102 203 -97 208 7 6 31 13 68 18 6 0 33 -41 62 -92z m303 -38 c0
-4 -11 -9 -25 -11 -20 -4 -30 1 -45 22 -25 35 -25 38 3 42 14 3 30 -4 44 -21
13 -14 23 -29 23 -32z m-34 -79 c15 -22 25 -42 23 -44 -2 -1 -36 -14 -75 -28
l-70 -26 -27 48 -27 47 73 20 c39 11 73 21 74 22 2 0 15 -17 29 -39z"/>
</g>
</svg>
